Coordinates
version=1
nRows=8
nColumns=63
inDegrees=yes

Units are S.I. units (second, meters, Newtons, ...)
If the header above contains a line with 'inDegrees', this indicates whether rotational values are in degrees (yes) or radians (no).

endheader
time	pelvis_tilt	pelvis_list	pelvis_rotation	pelvis_tx	pelvis_ty	pelvis_tz	hip_flexion_r	hip_adduction_r	hip_rotation_r	knee_angle_r	knee_angle_r_beta	ankle_angle_r	subtalar_angle_r	mtp_angle_r	hip_flexion_l	hip_adduction_l	hip_rotation_l	knee_angle_l	knee_angle_l_beta	ankle_angle_l	subtalar_angle_l	mtp_angle_l	L5_S1_Flex_Ext	L5_S1_Lat_Bending	L5_S1_axial_rotation	L4_L5_Flex_Ext	L4_L5_Lat_Bending	L4_L5_axial_rotation	L3_L4_Flex_Ext	L3_L4_Lat_Bending	L3_L4_axial_rotation	L2_L3_Flex_Ext	L2_L3_Lat_Bending	L2_L3_axial_rotation	L1_L2_Flex_Ext	L1_L2_Lat_Bending	L1_L2_axial_rotation	L1_T12_Flex_Ext	L1_T12_Lat_Bending	L1_T12_axial_rotation	Abs_r3	Abs_r2	Abs_r1	Abs_t1	Abs_t2	neck_flexion	neck_bending	neck_rotation	arm_flex_r	arm_add_r	arm_rot_r	elbow_flex_r	pro_sup_r	wrist_flex_r	wrist_dev_r	arm_flex_l	arm_add_l	arm_rot_l	elbow_flex_l	pro_sup_l	wrist_flex_l	wrist_dev_l
      0.90000000	      4.90442883	     -3.28014639	     83.13371011	      0.13226012	      0.89001451	      0.42175758	      6.87979226	     -1.78475556	    -14.85916867	     17.54118990	      0.30615152	     31.45881915	     18.80493267	      0.00000000	      6.27092818	     -1.32098520	      4.11795845	     16.34837039	      0.28533289	     29.56166256	    -16.65322775	      0.00000000	      0.05346799	     -0.11309744	      1.64268041	      0.09929540	     -0.15041960	      1.74534793	      0.08784256	     -0.27498512	      1.74534793	      0.06110856	     -0.27498512	      1.43734536	      0.04965037	     -0.23062830	      1.33467783	      0.03055161	     -0.17518793	      1.23201031	      0.38191649	     -1.27938086	      9.13609563	      0.00000000	      0.00000000	      3.19881048	     10.96313803	    -42.56602005	    -72.98041062	    -68.17888237	   -196.12527048	    149.57690012	      5.21357756	     -6.11737944	     12.62208351	     97.02152312	    -21.68424634	      7.98271023	    142.11170643	     88.45556638	    -13.74752782	     24.40616850
      0.91666667	      4.85040316	     -3.12356141	     83.02084228	      0.13188693	      0.89017273	      0.42180433	      6.79989269	     -1.89859808	    -14.80169835	     17.59305905	      0.30705681	     31.57676785	     18.80468947	      0.00000000	      6.19027828	     -1.17942363	      4.39759912	     16.31126844	      0.28468534	     29.56893471	    -16.69959688	      0.00000000	      0.03794616	     -0.12186606	      1.40240532	      0.07046981	     -0.16208186	      1.49005566	      0.06234174	     -0.29630514	      1.49005566	      0.04336866	     -0.29630514	      1.22710466	      0.03523680	     -0.24850927	      1.13945433	      0.02168243	     -0.18877053	      1.05180399	      0.27104561	     -1.37857326	      7.79975770	      0.00000000	      0.00000000	      1.45628719	     11.50624607	    -42.86598562	    -76.44111479	    -71.60608790	   -198.29391221	    149.65378974	      2.43581824	     -2.20746784	     11.48214913	     97.72322851	    -22.34817831	      8.49467064	    142.63947717	     88.45445387	    -13.92564895	     24.08840353
      0.93333333	      5.83213520	     -2.93566266	     83.48489237	      0.12879176	      0.88974322	      0.42165301	      6.37862053	     -1.09446880	    -15.43886893	     17.37310634	      0.30321791	     31.48407249	     18.82798646	      0.00000000	      6.31790473	     -1.90300744	      5.44101182	     16.95701416	      0.29595573	     30.23382906	    -16.93944243	      0.00000000	      0.03071113	      0.06134146	      1.13949189	      0.05703364	      0.08158414	      1.21071013	      0.05045531	      0.14914562	      1.21071013	      0.03509975	      0.14914562	      0.99705540	      0.02851835	      0.12508750	      0.92583716	      0.01754834	      0.09501792	      0.85461892	      0.21936651	      0.69390685	      6.33751204	      0.00000000	      0.00000000	     -0.79661221	     10.13628975	    -41.97082706	    -89.90502268	    -74.99846652	   -210.09833570	    149.68017270	      1.86120900	     -2.04007551	     12.15621820	     96.55670927	    -23.14041168	      7.99201927	    143.70166930	     88.45977844	    -15.48925817	     23.14643502
      0.95000000	      5.83896771	     -2.88967367	     83.46467889	      0.12914304	      0.88968042	      0.42129788	      6.36945945	     -1.07308359	    -15.33854657	     17.41130497	      0.30388460	     31.90892546	     18.81708365	      0.00000000	      6.28300392	     -1.92044430	      5.46434167	     17.02128758	      0.29707751	     30.29049899	    -16.93489525	      0.00000000	      0.01949150	      0.04556255	      1.13360040	      0.03619766	      0.06059819	      1.20445043	      0.03202258	      0.11078078	      1.20445043	      0.02227683	      0.11078078	      0.99190035	      0.01809981	      0.09291115	      0.92105033	      0.01113744	      0.07057639	      0.85020030	      0.13922582	      0.51541268	      6.30474537	      0.00000000	      0.00000000	     -1.19744004	     11.23591687	    -42.67835844	    -90.79729899	    -74.72414492	   -210.40616415	    149.75706875	      1.71038020	     -0.93390180	     12.21815932	     96.49668566	    -22.84432435	      8.36324389	    144.35201153	     88.54360829	    -15.28377945	     22.98618093
      0.96666667	      6.57035534	     -2.79840923	     83.33680812	      0.12716823	      0.88897631	      0.42144252	      6.26358249	     -0.46432972	    -15.38401619	     17.41950381	      0.30402770	     31.92988503	     18.80240500	      0.00000000	      6.26666471	     -2.55116931	      5.38861951	     17.44792949	      0.30452382	     30.72815749	    -16.98649717	      0.00000000	      0.00684515	      0.22251549	      1.04886768	      0.01271213	      0.29594561	      1.11442191	      0.01124590	      0.54102417	      1.11442191	      0.00782332	      0.54102417	      0.91775922	      0.00635641	      0.45375359	      0.85220499	      0.00391132	      0.34467650	      0.78665076	      0.04889422	      2.51713976	      5.83348739	      0.00000000	      0.00000000	     -1.88176819	      9.62399005	    -40.14145592	   -109.29059469	    -75.80523340	   -228.13400175	    149.69814969	      1.64017330	     -0.85018693	     14.18856589	     94.58897435	    -23.84326683	      6.46630168	    145.54535304	     88.65475641	    -14.48155524	     22.09801224
      0.98333333	      6.53327294	     -2.94711834	     83.45832939	      0.12755383	      0.88835897	      0.42137437	      6.43495997	     -0.46798948	    -15.56606096	     17.45757463	      0.30469216	     32.17077318	     18.78938842	      0.00000000	      6.42850268	     -2.59535138	      5.21957538	     17.61279516	      0.30740127	     30.64201610	    -16.98224027	      0.00000000	     -0.00900884	      0.22702677	      1.11977165	     -0.01673031	      0.30194560	      1.18975737	     -0.01480062	      0.55199288	      1.18975737	     -0.01029620	      0.55199288	      0.97980019	     -0.00836560	      0.46295298	      0.90981446	     -0.00514765	      0.35166446	      0.83982873	     -0.06434921	      2.56817219	      6.22783396	      0.00000000	      0.00000000	     -1.10476230	      9.95986273	    -39.75557714	   -109.16318787	    -73.85844870	   -229.01987331	    149.68523986	      1.68174555	      0.19556764	     14.47732515	     93.95847549	    -23.63558434	      6.32362588	    146.16714244	     88.75705781	    -14.44578310	     21.80821722
      1.00000000	      6.53763381	     -3.16683426	     83.47870819	      0.12789590	      0.88771510	      0.42151594	      6.72336315	     -0.43085652	    -15.69248108	     17.59411761	      0.30707528	     32.23554035	     18.79442084	      0.00000000	      6.63215744	     -2.70530019	      4.83029092	     17.75236399	      0.30983720	     30.47116414	    -17.00120691	      0.00000000	     -0.03363893	      0.24923448	      1.20873008	     -0.06247085	      0.33148185	      1.28427571	     -0.05526539	      0.60598871	      1.28427571	     -0.03844593	      0.60598871	      1.05763882	     -0.03123711	      0.50823895	      0.98209319	     -0.01922128	      0.38606421	      0.90654756	     -0.24027948	      2.81939026	      6.72259410	      0.00000000	      0.00000000	     -0.38897383	      9.93056939	    -38.75715913	   -108.92387450	    -71.84162987	   -230.15010357	    149.65605782	      1.63909900	      0.93503266	     14.74043019	     92.99900338	    -23.32034968	      5.85777526	    146.72404175	     88.84191616	    -14.33112101	     21.35608433
      1.01666667	      6.63833303	     -3.48127529	     83.24360804	      0.12838297	      0.88708821	      0.42180202	      7.13879927	     -0.26957661	    -15.63395823	     17.78256467	      0.31036430	     32.09149314	     18.84192103	      0.00000000	      6.83990603	     -2.95670816	      4.22547759	     17.80463604	      0.31074952	     30.31911587	    -16.98585014	      0.00000000	     -0.05717255	      0.29926524	      1.33055068	     -0.10617514	      0.39802277	      1.41371010	     -0.09392878	      0.72763351	      1.41371010	     -0.06534251	      0.72763351	      1.16423185	     -0.05309043	      0.61026168	      1.08107243	     -0.03266839	      0.46356186	      0.99791301	     -0.40837779	      3.38534827	      7.40012374	      0.00000000	      0.00000000	     -0.20899477	      9.47277965	    -37.02630547	   -109.22082456	    -69.89812936	   -231.34929063	    149.61194854	      1.58035545	      1.09195541	     14.87153482	     91.60380926	    -22.84230317	      4.80832472	    147.18510505	     88.90897949	    -13.87416924	     20.61073771
